<svg xmlns="http://www.w3.org/2000/svg" viewBox="0 0 820 440" width="820" height="440"
     font-family="'Segoe UI', system-ui, -apple-system, sans-serif">
  <defs>
    <filter id="sh" x="-2%" y="-2%" width="104%" height="108%">
      <feDropShadow dx="0" dy="2" stdDeviation="3" flood-opacity="0.08"/>
    </filter>
    <linearGradient id="deficitGrad" x1="0" y1="0" x2="0" y2="1">
      <stop offset="0%" stop-color="#fca5a5"/><stop offset="100%" stop-color="#fecaca"/>
    </linearGradient>
    <linearGradient id="surplusGrad" x1="0" y1="0" x2="0" y2="1">
      <stop offset="0%" stop-color="#86efac"/><stop offset="100%" stop-color="#bbf7d0"/>
    </linearGradient>
  </defs>

  <!-- Card -->
  <rect width="820" height="440" rx="14" fill="#f8fafc"/>
  <rect x="1" y="1" width="818" height="438" rx="14" fill="none" stroke="#e2e8f0"/>

  <!-- Title -->
  <text x="40" y="40" font-size="20" font-weight="700" fill="#0f172a">Before / After Scenario</text>
  <text x="40" y="62" font-size="12" fill="#64748b">Water-pressure study — proposed main replacement on Elm Street</text>

  <!-- ===== BEFORE panel (left) ===== -->
  <g transform="translate(30,82)">
    <rect width="370" height="310" rx="10" fill="#ffffff" stroke="#cbd5e1" filter="url(#sh)"/>
    <rect width="370" height="34" rx="10" fill="#f1f5f9"/>
    <rect y="17" width="370" height="17" fill="#f1f5f9"/>
    <text x="185" y="24" font-size="13" font-weight="600" fill="#475569" text-anchor="middle">BEFORE — Baseline</text>

    <!-- Map background -->
    <rect x="16" y="46" width="338" height="210" rx="6" fill="#f0f9ff"/>

    <!-- Streets (simplified) -->
    <g stroke="#94a3b8" stroke-width="2" fill="none">
      <line x1="40" y1="100" x2="330" y2="100"/>
      <line x1="40" y1="160" x2="330" y2="160"/>
      <line x1="100" y1="60" x2="100" y2="240"/>
      <line x1="250" y1="60" x2="250" y2="240"/>
    </g>
    <!-- Street labels -->
    <text x="175" y="93" font-size="9" fill="#64748b" text-anchor="middle">Main St</text>
    <text x="175" y="153" font-size="9" fill="#64748b" text-anchor="middle">Elm St</text>

    <!-- Pressure nodes — mostly red/yellow (deficit) -->
    <circle cx="100" cy="100" r="14" fill="#fca5a5" stroke="#dc2626" stroke-width="2"/>
    <text x="100" y="104" font-size="9" font-weight="700" fill="#991b1b" text-anchor="middle">32</text>

    <circle cx="250" cy="100" r="14" fill="#fde68a" stroke="#d97706" stroke-width="2"/>
    <text x="250" y="104" font-size="9" font-weight="700" fill="#92400e" text-anchor="middle">45</text>

    <circle cx="100" cy="160" r="14" fill="#fca5a5" stroke="#dc2626" stroke-width="2"/>
    <text x="100" y="164" font-size="9" font-weight="700" fill="#991b1b" text-anchor="middle">28</text>

    <circle cx="250" cy="160" r="14" fill="#fca5a5" stroke="#dc2626" stroke-width="2"/>
    <text x="250" y="164" font-size="9" font-weight="700" fill="#991b1b" text-anchor="middle">35</text>

    <!-- Pipe highlight (old, thin) -->
    <line x1="100" y1="160" x2="250" y2="160" stroke="#dc2626" stroke-width="4" opacity="0.4"/>

    <!-- Legend labels -->
    <text x="56" y="76" font-size="8" fill="#64748b">Node A</text>
    <text x="206" y="76" font-size="8" fill="#64748b">Node B</text>
    <text x="56" y="186" font-size="8" fill="#64748b">Node C</text>
    <text x="206" y="186" font-size="8" fill="#64748b">Node D</text>

    <!-- Metrics footer -->
    <g transform="translate(16,268)">
      <rect width="338" height="34" rx="5" fill="#fef2f2"/>
      <circle cx="14" cy="17" r="4" fill="#dc2626"/>
      <text x="24" y="21" font-size="11" fill="#991b1b" font-weight="500">Avg pressure: 35 psi  ·  3 of 4 nodes below target</text>
    </g>
  </g>

  <!-- ===== AFTER panel (right) ===== -->
  <g transform="translate(420,82)">
    <rect width="370" height="310" rx="10" fill="#ffffff" stroke="#cbd5e1" filter="url(#sh)"/>
    <rect width="370" height="34" rx="10" fill="#f0fdf4"/>
    <rect y="17" width="370" height="17" fill="#f0fdf4"/>
    <text x="185" y="24" font-size="13" font-weight="600" fill="#166534" text-anchor="middle">AFTER — Proposed</text>

    <!-- Map background -->
    <rect x="16" y="46" width="338" height="210" rx="6" fill="#f0fdf9"/>

    <!-- Streets -->
    <g stroke="#94a3b8" stroke-width="2" fill="none">
      <line x1="40" y1="100" x2="330" y2="100"/>
      <line x1="40" y1="160" x2="330" y2="160"/>
      <line x1="100" y1="60" x2="100" y2="240"/>
      <line x1="250" y1="60" x2="250" y2="240"/>
    </g>
    <text x="175" y="93" font-size="9" fill="#64748b" text-anchor="middle">Main St</text>
    <text x="175" y="153" font-size="9" fill="#64748b" text-anchor="middle">Elm St</text>

    <!-- Pressure nodes — all green/yellow after improvement -->
    <circle cx="100" cy="100" r="14" fill="#86efac" stroke="#16a34a" stroke-width="2"/>
    <text x="100" y="104" font-size="9" font-weight="700" fill="#166534" text-anchor="middle">58</text>

    <circle cx="250" cy="100" r="14" fill="#86efac" stroke="#16a34a" stroke-width="2"/>
    <text x="250" y="104" font-size="9" font-weight="700" fill="#166534" text-anchor="middle">62</text>

    <circle cx="100" cy="160" r="14" fill="#86efac" stroke="#16a34a" stroke-width="2"/>
    <text x="100" y="164" font-size="9" font-weight="700" fill="#166534" text-anchor="middle">52</text>

    <circle cx="250" cy="160" r="14" fill="#fde68a" stroke="#d97706" stroke-width="2"/>
    <text x="250" y="164" font-size="9" font-weight="700" fill="#92400e" text-anchor="middle">48</text>

    <!-- New pipe highlight (thick green) -->
    <line x1="100" y1="160" x2="250" y2="160" stroke="#16a34a" stroke-width="5" opacity="0.5"/>
    <text x="175" y="202" font-size="9" fill="#166534" font-weight="600" text-anchor="middle">New 12" main</text>

    <!-- Improvement arrows -->
    <g font-size="9" fill="#16a34a" font-weight="700">
      <text x="126" y="100" text-anchor="start">+26 &#x25B2;</text>
      <text x="276" y="100" text-anchor="start">+17 &#x25B2;</text>
      <text x="126" y="160" text-anchor="start">+24 &#x25B2;</text>
      <text x="276" y="160" text-anchor="start">+13 &#x25B2;</text>
    </g>

    <!-- Node labels -->
    <text x="56" y="76" font-size="8" fill="#64748b">Node A</text>
    <text x="206" y="76" font-size="8" fill="#64748b">Node B</text>
    <text x="56" y="186" font-size="8" fill="#64748b">Node C</text>
    <text x="206" y="186" font-size="8" fill="#64748b">Node D</text>

    <!-- Metrics footer -->
    <g transform="translate(16,268)">
      <rect width="338" height="34" rx="5" fill="#f0fdf4"/>
      <circle cx="14" cy="17" r="4" fill="#16a34a"/>
      <text x="24" y="21" font-size="11" fill="#166534" font-weight="500">Avg pressure: 55 psi  ·  0 of 4 nodes below target</text>
    </g>
  </g>

  <!-- Delta summary bar -->
  <g transform="translate(30,402)">
    <rect width="760" height="28" rx="6" fill="#eff6ff"/>
    <text x="380" y="19" font-size="12" fill="#1e40af" text-anchor="middle" font-weight="600">
      &#x2705;  Average pressure +20 psi  ·  Deficit nodes reduced 3 &#x2192; 0  ·  Fire-flow compliance 100%
    </text>
  </g>
</svg>