<svg xmlns="http://www.w3.org/2000/svg" viewBox="0 0 920 440" width="920" height="440"
     font-family="'Segoe UI', system-ui, -apple-system, sans-serif">
  <rect width="920" height="440" rx="14" fill="#f6faf7"/>
  <rect x="1" y="1" width="918" height="438" rx="14" fill="none" stroke="#d1e2d5"/>
  <text x="30" y="36" font-size="21" font-weight="700" fill="#14352b">Formula Parity Audit</text>
  <text x="30" y="56" font-size="12" fill="#4e6c62">Analytic reference comparisons for decay and interaction functions</text>

  <rect x="30" y="78" width="580" height="320" rx="10" fill="#ffffff" stroke="#d4e3d8"/>
  <g stroke="#e6efe8" stroke-width="1">
    <line x1="80" y1="110" x2="80" y2="360"/>
    <line x1="160" y1="110" x2="160" y2="360"/>
    <line x1="240" y1="110" x2="240" y2="360"/>
    <line x1="320" y1="110" x2="320" y2="360"/>
    <line x1="400" y1="110" x2="400" y2="360"/>
    <line x1="480" y1="110" x2="480" y2="360"/>
    <line x1="560" y1="110" x2="560" y2="360"/>
    <line x1="80" y1="360" x2="560" y2="360"/>
    <line x1="80" y1="310" x2="560" y2="310"/>
    <line x1="80" y1="260" x2="560" y2="260"/>
    <line x1="80" y1="210" x2="560" y2="210"/>
    <line x1="80" y1="160" x2="560" y2="160"/>
    <line x1="80" y1="110" x2="560" y2="110"/>
  </g>

  <polyline points="80,360 160,298 240,252 320,218 400,192 480,173 560,158" fill="none" stroke="#0d9488" stroke-width="3"/>
  <polyline points="80,360 160,282 240,233 320,203 400,185 480,175 560,170" fill="none" stroke="#2563eb" stroke-width="3" stroke-dasharray="7 5"/>
  <polyline points="80,360 160,324 240,288 320,252 400,220 480,194 560,173" fill="none" stroke="#d97706" stroke-width="3"/>

  <g fill="#0f172a" font-size="11" text-anchor="middle">
    <text x="80" y="378">0</text><text x="160" y="378">1</text><text x="240" y="378">2</text>
    <text x="320" y="378">3</text><text x="400" y="378">4</text><text x="480" y="378">5</text><text x="560" y="378">6</text>
  </g>
  <text x="322" y="398" font-size="11" fill="#3f5a53" text-anchor="middle">distance</text>
  <text x="24" y="242" font-size="11" fill="#3f5a53" transform="rotate(-90 24,242)">decay value</text>

  <rect x="636" y="78" width="254" height="320" rx="10" fill="#ffffff" stroke="#d4e3d8"/>
  <text x="652" y="108" font-size="13" font-weight="700" fill="#1f4438">Audit Summary</text>
  <text x="652" y="132" font-size="11" fill="#2f5549">- prompt_decay analytic parity: PASS</text>
  <text x="652" y="150" font-size="11" fill="#2f5549">- gaussian/exponential monotonicity: PASS</text>
  <text x="652" y="168" font-size="11" fill="#2f5549">- interaction multiplication parity: PASS</text>
  <text x="652" y="186" font-size="11" fill="#2f5549">- weighted accessibility parity: PASS</text>

  <line x1="652" y1="214" x2="676" y2="214" stroke="#0d9488" stroke-width="3"/>
  <text x="684" y="218" font-size="10" fill="#2f5549">Power decay (scale=1.6,p=1.8)</text>
  <line x1="652" y1="236" x2="676" y2="236" stroke="#2563eb" stroke-width="3" stroke-dasharray="7 5"/>
  <text x="684" y="240" font-size="10" fill="#2f5549">Exponential decay (rate=0.3)</text>
  <line x1="652" y1="258" x2="676" y2="258" stroke="#d97706" stroke-width="3"/>
  <text x="684" y="262" font-size="10" fill="#2f5549">Gaussian decay (sigma=3.0)</text>

  <rect x="652" y="286" width="222" height="88" rx="8" fill="#ecfdf5" stroke="#bbf7d0"/>
  <text x="664" y="306" font-size="11" fill="#166534">Tolerance envelope</text>
  <text x="664" y="324" font-size="11" fill="#166534">abs_tol = 1e-12</text>
  <text x="664" y="342" font-size="11" fill="#166534">Optional parity guard:</text>
  <text x="664" y="360" font-size="11" fill="#166534">GeoPandas area/bounds comparison</text>
</svg>