<svg xmlns="http://www.w3.org/2000/svg" viewBox="0 0 820 400" width="820" height="400"
     font-family="'Segoe UI', system-ui, -apple-system, sans-serif">
  <rect width="820" height="400" rx="14" fill="#f7f9fc"/>
  <rect x="1" y="1" width="818" height="398" rx="14" fill="none" stroke="#d7dde8"/>

  <text x="32" y="36" font-size="20" font-weight="700" fill="#12263a">Migration effort vs benefit quadrant</text>
  <text x="32" y="56" font-size="12" fill="#4c5d70">Sample tasks from migration playbooks in docs and examples</text>

  <rect x="72" y="84" width="680" height="260" rx="10" fill="#ffffff" stroke="#d7dde8"/>
  <line x1="412" y1="96" x2="412" y2="332" stroke="#8ca0b3" stroke-dasharray="5 4"/>
  <line x1="84" y1="214" x2="740" y2="214" stroke="#8ca0b3" stroke-dasharray="5 4"/>

  <text x="244" y="110" font-size="11" fill="#4c5d70" text-anchor="middle">Quick wins</text>
  <text x="580" y="110" font-size="11" fill="#4c5d70" text-anchor="middle">Strategic investments</text>
  <text x="244" y="328" font-size="11" fill="#4c5d70" text-anchor="middle">Defer or simplify</text>
  <text x="580" y="328" font-size="11" fill="#4c5d70" text-anchor="middle">Plan and phase</text>

  <text x="412" y="362" font-size="11" fill="#4c5d70" text-anchor="middle">Implementation effort (low -> high)</text>
  <text x="32" y="214" font-size="11" fill="#4c5d70" transform="rotate(-90 32,214)">Business benefit (low -> high)</text>

  <g>
    <circle cx="220" cy="150" r="11" fill="#12724f"/><text x="236" y="154" font-size="11" fill="#1f3347">Scenario report exports</text>
    <circle cx="312" cy="132" r="11" fill="#12724f"/><text x="328" y="136" font-size="11" fill="#1f3347">GeoPandas interop checks</text>
    <circle cx="520" cy="152" r="11" fill="#1565c0"/><text x="536" y="156" font-size="11" fill="#1f3347">Resilience portfolio model</text>
    <circle cx="606" cy="172" r="11" fill="#1565c0"/><text x="622" y="176" font-size="11" fill="#1f3347">Service deployment hardening</text>
    <circle cx="236" cy="262" r="11" fill="#d97706"/><text x="252" y="266" font-size="11" fill="#1f3347">Legacy one-off scripts</text>
    <circle cx="574" cy="258" r="11" fill="#b42318"/><text x="590" y="262" font-size="11" fill="#1f3347">Full enterprise parity claims</text>
  </g>

  <rect x="72" y="356" width="680" height="22" rx="6" fill="#edf3fb"/>
  <text x="92" y="371" font-size="11" fill="#2b3d52">Legend:</text>
  <circle cx="132" cy="367" r="5" fill="#12724f"/><text x="142" y="371" font-size="11" fill="#2b3d52">low effort / high benefit</text>
  <circle cx="286" cy="367" r="5" fill="#1565c0"/><text x="296" y="371" font-size="11" fill="#2b3d52">high effort / high benefit</text>
  <circle cx="446" cy="367" r="5" fill="#d97706"/><text x="456" y="371" font-size="11" fill="#2b3d52">low benefit</text>
  <circle cx="536" cy="367" r="5" fill="#b42318"/><text x="546" y="371" font-size="11" fill="#2b3d52">high risk initiatives</text>
</svg>