<svg xmlns="http://www.w3.org/2000/svg" viewBox="0 0 980 520" width="980" height="520"
     font-family="'Segoe UI', system-ui, -apple-system, sans-serif">
  <defs>
    <linearGradient id="bg" x1="0" y1="0" x2="1" y2="1">
      <stop offset="0%" stop-color="#f3f7fb"/>
      <stop offset="100%" stop-color="#e8f0f7"/>
    </linearGradient>
  </defs>
  <rect width="980" height="520" rx="16" fill="url(#bg)"/>
  <rect x="1" y="1" width="978" height="518" rx="16" fill="none" stroke="#c9d8e7"/>

  <text x="34" y="38" font-size="22" font-weight="700" fill="#133148">Neighborhood Pressure Review</text>
  <text x="34" y="58" font-size="12" fill="#4a647a">Generated by geoprompt-demo using data/sample_features.json</text>

  <rect x="34" y="82" width="640" height="386" rx="12" fill="#ffffff" stroke="#d3e0ec"/>
  <g stroke="#d8e2ed" stroke-width="1">
    <line x1="70" y1="120" x2="640" y2="120"/>
    <line x1="70" y1="190" x2="640" y2="190"/>
    <line x1="70" y1="260" x2="640" y2="260"/>
    <line x1="70" y1="330" x2="640" y2="330"/>
    <line x1="70" y1="400" x2="640" y2="400"/>
    <line x1="110" y1="98" x2="110" y2="446"/>
    <line x1="230" y1="98" x2="230" y2="446"/>
    <line x1="350" y1="98" x2="350" y2="446"/>
    <line x1="470" y1="98" x2="470" y2="446"/>
    <line x1="590" y1="98" x2="590" y2="446"/>
  </g>

  <g stroke="#486a86" stroke-width="5" stroke-linecap="round" fill="none" opacity="0.78">
    <polyline points="110,120 230,120 350,190 470,190 590,260"/>
    <polyline points="110,260 230,260 350,330 470,330 590,400"/>
    <polyline points="230,120 230,260"/>
    <polyline points="350,190 350,330"/>
    <polyline points="470,190 470,330"/>
  </g>

  <g>
    <circle cx="110" cy="120" r="24" fill="#ffd166" stroke="#ac7a00"/><text x="110" y="125" text-anchor="middle" font-size="11" font-weight="700" fill="#594200">0.43</text>
    <circle cx="230" cy="120" r="28" fill="#fcbf49" stroke="#9a6400"/><text x="230" y="125" text-anchor="middle" font-size="11" font-weight="700" fill="#4f3600">0.58</text>
    <circle cx="350" cy="190" r="32" fill="#f77f00" stroke="#8e3b00"/><text x="350" y="195" text-anchor="middle" font-size="11" font-weight="700" fill="#fff3e6">0.71</text>
    <circle cx="470" cy="190" r="34" fill="#e63946" stroke="#7b1d22"/><text x="470" y="195" text-anchor="middle" font-size="11" font-weight="700" fill="#fff0f1">0.82</text>
    <circle cx="590" cy="260" r="37" fill="#b5179e" stroke="#641057"/><text x="590" y="265" text-anchor="middle" font-size="11" font-weight="700" fill="#fdf1fb">0.92</text>
    <circle cx="110" cy="260" r="23" fill="#ffe08a" stroke="#9d840d"/><text x="110" y="265" text-anchor="middle" font-size="11" font-weight="700" fill="#5e5006">0.39</text>
    <circle cx="230" cy="260" r="27" fill="#ffd166" stroke="#9f7700"/><text x="230" y="265" text-anchor="middle" font-size="11" font-weight="700" fill="#5e4500">0.54</text>
    <circle cx="350" cy="330" r="31" fill="#fcbf49" stroke="#925c00"/><text x="350" y="335" text-anchor="middle" font-size="11" font-weight="700" fill="#4f3400">0.68</text>
    <circle cx="470" cy="330" r="36" fill="#f77f00" stroke="#7a3400"/><text x="470" y="335" text-anchor="middle" font-size="11" font-weight="700" fill="#fff3e7">0.80</text>
    <circle cx="590" cy="400" r="39" fill="#e63946" stroke="#67151a"/><text x="590" y="405" text-anchor="middle" font-size="11" font-weight="700" fill="#fff2f3">0.89</text>
  </g>

  <rect x="700" y="82" width="248" height="386" rx="12" fill="#ffffff" stroke="#d3e0ec"/>
  <text x="718" y="112" font-size="14" font-weight="700" fill="#1d3a53">Interpretation</text>
  <text x="718" y="136" font-size="11" fill="#51697d">Bubble size and color encode</text>
  <text x="718" y="152" font-size="11" fill="#51697d">relative neighborhood pressure.</text>

  <text x="718" y="188" font-size="11" fill="#27445c">High pressure corridors:</text>
  <text x="718" y="205" font-size="11" fill="#27445c">East trunk and South-east node</text>

  <text x="718" y="242" font-size="11" fill="#27445c">Top stress nodes:</text>
  <text x="718" y="259" font-size="11" fill="#27445c">North-east hub (0.92)</text>
  <text x="718" y="276" font-size="11" fill="#27445c">South-east terminal (0.89)</text>

  <g transform="translate(718,312)">
    <text x="0" y="0" font-size="11" fill="#27445c">Legend</text>
    <rect x="0" y="10" width="170" height="16" fill="#ffe08a"/><text x="178" y="23" font-size="10" fill="#4d6070">low</text>
    <rect x="0" y="30" width="170" height="16" fill="#ffd166"/>
    <rect x="0" y="50" width="170" height="16" fill="#fcbf49"/>
    <rect x="0" y="70" width="170" height="16" fill="#f77f00"/>
    <rect x="0" y="90" width="170" height="16" fill="#e63946"/>
    <rect x="0" y="110" width="170" height="16" fill="#b5179e"/><text x="178" y="123" font-size="10" fill="#4d6070">high</text>
  </g>

  <text x="34" y="494" font-size="11" fill="#4d667a">Source: geoprompt-demo chart path logic, regenerated as SVG for publication-quality docs.</text>
</svg>