<svg xmlns="http://www.w3.org/2000/svg" viewBox="0 0 860 360" width="860" height="360"
     font-family="'Segoe UI', system-ui, -apple-system, sans-serif">
  <rect width="860" height="360" rx="14" fill="#f7f9fc"/>
  <rect x="1" y="1" width="858" height="358" rx="14" fill="none" stroke="#d7dde8"/>

  <text x="34" y="34" font-size="20" font-weight="700" fill="#12263a">Restoration timeline vs unmet demand</text>
  <text x="34" y="54" font-size="12" fill="#4c5d70">Sample dataset: data/sample_features.json + network scenario fixtures</text>

  <rect x="70" y="78" width="760" height="226" rx="8" fill="#ffffff" stroke="#d7dde8"/>
  <g stroke="#e4e9f2" stroke-width="1">
    <line x1="120" y1="102" x2="120" y2="280"/>
    <line x1="260" y1="102" x2="260" y2="280"/>
    <line x1="400" y1="102" x2="400" y2="280"/>
    <line x1="540" y1="102" x2="540" y2="280"/>
    <line x1="680" y1="102" x2="680" y2="280"/>
    <line x1="820" y1="102" x2="820" y2="280"/>
    <line x1="120" y1="280" x2="820" y2="280"/>
    <line x1="120" y1="235" x2="820" y2="235"/>
    <line x1="120" y1="190" x2="820" y2="190"/>
    <line x1="120" y1="145" x2="820" y2="145"/>
    <line x1="120" y1="102" x2="820" y2="102"/>
  </g>

  <g font-size="10" fill="#5c6b7a" text-anchor="middle">
    <text x="120" y="296">0h</text><text x="260" y="296">1h</text><text x="400" y="296">2h</text>
    <text x="540" y="296">3h</text><text x="680" y="296">4h</text><text x="820" y="296">5h</text>
  </g>
  <text x="470" y="316" font-size="11" fill="#4c5d70" text-anchor="middle">Time since disruption (hours)</text>

  <g font-size="10" fill="#5c6b7a" text-anchor="end">
    <text x="112" y="283">0</text><text x="112" y="238">25</text><text x="112" y="193">50</text><text x="112" y="148">75</text><text x="112" y="105">100</text>
  </g>
  <text x="24" y="192" font-size="11" fill="#4c5d70" transform="rotate(-90 24,192)">Service restored (%)</text>

  <g font-size="10" fill="#5c6b7a" text-anchor="start">
    <text x="828" y="283">0</text><text x="828" y="238">20</text><text x="828" y="193">40</text><text x="828" y="148">60</text><text x="828" y="105">80</text>
  </g>
  <text x="852" y="192" font-size="11" fill="#4c5d70" transform="rotate(90 852,192)">Unmet demand (MWh)</text>

  <polyline points="120,280 260,235 400,190 540,145 680,120 820,102" fill="none" stroke="#1565c0" stroke-width="3"/>
  <g fill="#1565c0">
    <circle cx="120" cy="280" r="4"/><circle cx="260" cy="235" r="4"/><circle cx="400" cy="190" r="4"/>
    <circle cx="540" cy="145" r="4"/><circle cx="680" cy="120" r="4"/><circle cx="820" cy="102" r="4"/>
  </g>

  <polyline points="120,102 260,120 400,145 540,172 680,212 820,246" fill="none" stroke="#b42318" stroke-width="3"/>
  <g fill="#b42318">
    <rect x="116" y="98" width="8" height="8" rx="2"/><rect x="256" y="116" width="8" height="8" rx="2"/>
    <rect x="396" y="141" width="8" height="8" rx="2"/><rect x="536" y="168" width="8" height="8" rx="2"/>
    <rect x="676" y="208" width="8" height="8" rx="2"/><rect x="816" y="242" width="8" height="8" rx="2"/>
  </g>

  <text x="827" y="98" font-size="11" fill="#0f4d92" font-weight="600">100% restored</text>
  <text x="827" y="260" font-size="11" fill="#8f1d15" font-weight="600">15 MWh unmet</text>

  <rect x="70" y="326" width="760" height="22" rx="6" fill="#edf3fb"/>
  <text x="98" y="341" font-size="11" fill="#2b3d52">Legend:</text>
  <line x1="150" y1="338" x2="174" y2="338" stroke="#1565c0" stroke-width="3"/>
  <text x="180" y="341" font-size="11" fill="#2b3d52">Restoration progression</text>
  <line x1="352" y1="338" x2="376" y2="338" stroke="#b42318" stroke-width="3"/>
  <text x="382" y="341" font-size="11" fill="#2b3d52">Unmet demand curve</text>
  <text x="608" y="341" font-size="11" fill="#2b3d52">Direct labels shown at final points</text>
</svg>