<svg xmlns="http://www.w3.org/2000/svg" viewBox="0 0 920 430" width="920" height="430"
     font-family="'Segoe UI', system-ui, -apple-system, sans-serif">
  <rect width="920" height="430" rx="14" fill="#f8f7fc"/>
  <rect x="1" y="1" width="918" height="428" rx="14" fill="none" stroke="#ddd8ee"/>
  <text x="30" y="36" font-size="21" font-weight="700" fill="#2d2450">Tool Reliability Audit</text>
  <text x="30" y="56" font-size="12" fill="#5f567f">Cross-check of report generation outputs and parity-facing utility bridges</text>

  <rect x="30" y="78" width="860" height="306" rx="10" fill="#ffffff" stroke="#dfd9f0"/>

  <g transform="translate(54,110)">
    <text x="0" y="0" font-size="12" font-weight="700" fill="#3f3566">Tool</text>
    <text x="310" y="0" font-size="12" font-weight="700" fill="#3f3566">Validation mode</text>
    <text x="650" y="0" font-size="12" font-weight="700" fill="#3f3566">Result</text>

    <line x1="0" y1="12" x2="800" y2="12" stroke="#ece9f6"/>

    <text x="0" y="44" font-size="11" fill="#403860">build_scenario_report</text>
    <text x="310" y="44" font-size="11" fill="#5c527f">delta / percent-delta reference math</text>
    <rect x="650" y="30" width="92" height="22" rx="11" fill="#dcfce7"/><text x="696" y="45" font-size="10" text-anchor="middle" fill="#166534" font-weight="700">PASS</text>

    <text x="0" y="84" font-size="11" fill="#403860">export_scenario_report</text>
    <text x="310" y="84" font-size="11" fill="#5c527f">JSON and CSV round-trip checks</text>
    <rect x="650" y="70" width="92" height="22" rx="11" fill="#dcfce7"/><text x="696" y="85" font-size="10" text-anchor="middle" fill="#166534" font-weight="700">PASS</text>

    <text x="0" y="124" font-size="11" fill="#403860">from_wkt_batch / to_wkt_batch</text>
    <text x="310" y="124" font-size="11" fill="#5c527f">Shapely + fallback malformed geometry guards</text>
    <rect x="650" y="110" width="92" height="22" rx="11" fill="#dcfce7"/><text x="696" y="125" font-size="10" text-anchor="middle" fill="#166534" font-weight="700">PASS</text>

    <text x="0" y="164" font-size="11" fill="#403860">GeoPromptFrame geometry_areas</text>
    <text x="310" y="164" font-size="11" fill="#5c527f">Optional GeoPandas parity (area, bounds)</text>
    <rect x="650" y="150" width="92" height="22" rx="11" fill="#fef9c3"/><text x="696" y="165" font-size="10" text-anchor="middle" fill="#854d0e" font-weight="700">SKIP/OPT</text>

    <text x="0" y="204" font-size="11" fill="#403860">adaptive_chunk_size / retry profiles</text>
    <text x="310" y="204" font-size="11" fill="#5c527f">narrowed exception policies</text>
    <rect x="650" y="190" width="92" height="22" rx="11" fill="#dcfce7"/><text x="696" y="205" font-size="10" text-anchor="middle" fill="#166534" font-weight="700">PASS</text>

    <line x1="0" y1="224" x2="800" y2="224" stroke="#ece9f6"/>

    <text x="0" y="252" font-size="11" fill="#4b416f">Audit policy: deterministic fixtures, explicit tolerances, and no silent broad exceptions in targeted paths.</text>
    <text x="0" y="270" font-size="11" fill="#4b416f">Reliability target: no regression against checked-in references and optional ecosystem parity checks where libraries exist.</text>
  </g>

  <rect x="30" y="394" width="860" height="20" rx="6" fill="#f0edfa"/>
  <text x="46" y="408" font-size="11" fill="#4e4572">Generated from test-driven audit definitions in tests/test_formula_tool_reliability_audit.py.</text>
</svg>