<svg xmlns="http://www.w3.org/2000/svg" width="1200" height="720" viewBox="0 0 1200 720" role="img" aria-labelledby="title desc">
  <title id="title">QGIS operations workbench preview</title>
  <desc id="desc">Concept preview showing layer summary cards, route layouts, bookmarks, and analyst review tasks for a desktop GIS workbench.</desc>
  <rect width="1200" height="720" fill="#eef2e7"/>
  <rect x="48" y="40" width="1104" height="128" rx="28" fill="#fbfcf7" stroke="#cfd8c4"/>
  <text x="84" y="84" fill="#5d6a54" font-family="Georgia, serif" font-size="16" letter-spacing="3">DESKTOP GIS WORKBENCH</text>
  <text x="84" y="134" fill="#1f2b1d" font-family="Georgia, serif" font-size="42">QGIS Operations Workbench</text>
  <text x="84" y="168" fill="#58655d" font-family="Georgia, serif" font-size="18">Public-safe concept for desktop review packs, route layouts, and analyst bookmarks.</text>
  <rect x="48" y="206" width="248" height="108" rx="24" fill="#fbfcf7" stroke="#cfd8c4"/>
  <rect x="316" y="206" width="248" height="108" rx="24" fill="#fbfcf7" stroke="#cfd8c4"/>
  <rect x="584" y="206" width="248" height="108" rx="24" fill="#fbfcf7" stroke="#cfd8c4"/>
  <rect x="852" y="206" width="300" height="108" rx="24" fill="#fbfcf7" stroke="#cfd8c4"/>
  <text x="78" y="240" fill="#69756a" font-family="Georgia, serif" font-size="14" letter-spacing="2">STATIONS</text>
  <text x="78" y="286" fill="#1f2b1d" font-family="Georgia, serif" font-size="38">4</text>
  <text x="346" y="240" fill="#69756a" font-family="Georgia, serif" font-size="14" letter-spacing="2">ROUTES</text>
  <text x="346" y="286" fill="#1f2b1d" font-family="Georgia, serif" font-size="38">3</text>
  <text x="614" y="240" fill="#69756a" font-family="Georgia, serif" font-size="14" letter-spacing="2">BOOKMARKS</text>
  <text x="614" y="286" fill="#1f2b1d" font-family="Georgia, serif" font-size="38">3</text>
  <text x="882" y="240" fill="#69756a" font-family="Georgia, serif" font-size="14" letter-spacing="2">TOP PRIORITY</text>
  <text x="882" y="286" fill="#1f2b1d" font-family="Georgia, serif" font-size="32">Cascade Smoke Watch</text>
  <rect x="48" y="346" width="520" height="326" rx="28" fill="#fbfcf7" stroke="#cfd8c4"/>
  <rect x="600" y="346" width="552" height="326" rx="28" fill="#fbfcf7" stroke="#cfd8c4"/>
  <text x="80" y="388" fill="#69756a" font-family="Georgia, serif" font-size="14" letter-spacing="2">LAYOUT JOBS</text>
  <text x="80" y="420" fill="#1f2b1d" font-family="Georgia, serif" font-size="28">Route Export Packets</text>
  <rect x="80" y="450" width="456" height="62" rx="16" fill="#edf2e8" stroke="#cfd8c4"/>
  <text x="104" y="487" fill="#1f2b1d" font-family="Georgia, serif" font-size="22">West Daily Review</text>
  <text x="104" y="511" fill="#617064" font-family="Georgia, serif" font-size="15">Scale 1:24,000 · Sierra Air Quality Node · Columbia River Gauge</text>
  <rect x="80" y="528" width="456" height="62" rx="16" fill="#edf2e8" stroke="#cfd8c4"/>
  <text x="104" y="565" fill="#1f2b1d" font-family="Georgia, serif" font-size="22">Central Smoke Ops</text>
  <text x="104" y="589" fill="#617064" font-family="Georgia, serif" font-size="15">Scale 1:35,000 · Cascade Smoke Watch</text>
  <text x="632" y="388" fill="#69756a" font-family="Georgia, serif" font-size="14" letter-spacing="2">REVIEW TASKS</text>
  <text x="632" y="420" fill="#1f2b1d" font-family="Georgia, serif" font-size="28">Analyst Priority Queue</text>
  <rect x="632" y="450" width="488" height="74" rx="18" fill="#f0e0d8" stroke="#dabbb0"/>
  <text x="658" y="485" fill="#1f2b1d" font-family="Georgia, serif" font-size="22">Cascade Smoke Watch</text>
  <text x="658" y="510" fill="#785148" font-family="Georgia, serif" font-size="15">Alert · High priority · Export Central smoke review map</text>
  <rect x="632" y="542" width="488" height="74" rx="18" fill="#edf2e8" stroke="#cfd8c4"/>
  <text x="658" y="577" fill="#1f2b1d" font-family="Georgia, serif" font-size="22">Plains Infrastructure Monitor</text>
  <text x="658" y="602" fill="#617064" font-family="Georgia, serif" font-size="15">Offline · Medium priority · Flag for field engineering follow-up</text>
</svg>
